<svg height="600" viewBox="-7.728941 -3.3286824 15.6 7.2" width="800" xmlns="http://www.w3.org/2000/svg">
<path d="M-5.428941,-2.7286823 L5.571059,-2.7286823 L6.571059,-0.7286823 L5.571059,0.27131772 L5.571059,2.2713177 L4.571059,3.2713177 L0.5710592,2.2713177 L-2.4289408,3.2713177 L-5.428941,2.2713177 L-6.428941,0.27131772 z" fill="none" stroke="black" stroke-width="0.05"/>
<line stroke="red" stroke-width="0.05" x1="-5.928941" x2="-5.928941" y1="1.2713177" y2="-1.2286823"/>
<line stroke="red" stroke-width="0.05" x1="-5.428941" x2="-5.428941" y1="-2.7286823" y2="2.2713177"/>
<line stroke="red" stroke-width="0.05" x1="-4.928941" x2="-4.928941" y1="-2.7286823" y2="2.4379845"/>
<line stroke="red" stroke-width="0.05" x1="-4.428941" x2="-4.428941" y1="-2.7286823" y2="2.604651"/>
<line stroke="red" stroke-width="0.05" x1="-3.9289408" x2="-3.9289408" y1="-2.7286823" y2="2.7713177"/>
<line stroke="red" stroke-width="0.05" x1="-3.4289408" x2="-3.4289408" y1="-2.7286823" y2="2.9379845"/>
<line stroke="red" stroke-width="0.05" x1="-2.9289408" x2="-2.9289408" y1="-2.7286823" y2="3.104651"/>
<line stroke="red" stroke-width="0.05" x1="-2.4289408" x2="-2.4289408" y1="-2.7286823" y2="3.2713177"/>
<line stroke="red" stroke-width="0.05" x1="-1.9289408" x2="-1.9289408" y1="-2.7286823" y2="3.104651"/>
<line stroke="red" stroke-width="0.05" x1="-1.4289408" x2="-1.4289408" y1="-2.7286823" y2="2.9379845"/>
<line stroke="red" stroke-width="0.05" x1="-0.9289408" x2="-0.9289408" y1="-2.7286823" y2="2.7713177"/>
<line stroke="red" stroke-width="0.05" x1="-0.42894077" x2="-0.42894077" y1="-2.7286823" y2="2.604651"/>
<line stroke="red" stroke-width="0.05" x1="0.07105923" x2="0.07105923" y1="-2.7286823" y2="2.4379845"/>
<line stroke="red" stroke-width="0.05" x1="0.5710592" x2="0.5710592" y1="-2.7286823" y2="2.2713177"/>
<line stroke="red" stroke-width="0.05" x1="1.0710592" x2="1.0710592" y1="-2.7286823" y2="2.3963177"/>
<line stroke="red" stroke-width="0.05" x1="1.5710592" x2="1.5710592" y1="-2.7286823" y2="2.5213177"/>
<line stroke="red" stroke-width="0.05" x1="2.0710592" x2="2.0710592" y1="-2.7286823" y2="2.6463177"/>
<line stroke="red" stroke-width="0.05" x1="2.5710592" x2="2.5710592" y1="-2.7286823" y2="2.7713177"/>
<line stroke="red" stroke-width="0.05" x1="3.0710592" x2="3.0710592" y1="-2.7286823" y2="2.8963177"/>
<line stroke="red" stroke-width="0.05" x1="3.5710592" x2="3.5710592" y1="-2.7286823" y2="3.0213177"/>
<line stroke="red" stroke-width="0.05" x1="4.071059" x2="4.071059" y1="-2.7286823" y2="3.1463177"/>
<line stroke="red" stroke-width="0.05" x1="4.571059" x2="4.571059" y1="-2.7286823" y2="3.2713177"/>
<line stroke="red" stroke-width="0.05" x1="5.071059" x2="5.071059" y1="-2.7286823" y2="2.7713177"/>
<line stroke="red" stroke-width="0.05" x1="5.571059" x2="5.571059" y1="-2.7286823" y2="0.27131772"/>
<line stroke="red" stroke-width="0.05" x1="6.071059" x2="6.071059" y1="-1.7286823" y2="-0.22868228"/>
</svg>