<svg height="600" viewBox="-4.8 -0.5761905 9.6 1.2" width="800" xmlns="http://www.w3.org/2000/svg">
<path d="M-4,-0.47619048 L4,-0.47619048 L3,0.52380955 L-3,0.52380955 z" fill="none" stroke="black" stroke-width="0.05"/>
<line stroke="red" stroke-width="0.05" x1="-4" x2="-4" y1="-0.47619048" y2="-0.47619045"/>
<line stroke="red" stroke-width="0.05" x1="-3.5" x2="-3.5" y1="-0.47619048" y2="0.023809552"/>
<line stroke="red" stroke-width="0.05" x1="-3" x2="-3" y1="-0.47619048" y2="0.52380955"/>
<line stroke="red" stroke-width="0.05" x1="-2.5" x2="-2.5" y1="-0.47619048" y2="0.52380955"/>
<line stroke="red" stroke-width="0.05" x1="-2" x2="-2" y1="-0.47619048" y2="0.52380955"/>
<line stroke="red" stroke-width="0.05" x1="-1.5" x2="-1.5" y1="-0.47619048" y2="0.52380955"/>
<line stroke="red" stroke-width="0.05" x1="-1" x2="-1" y1="-0.47619048" y2="0.52380955"/>
<line stroke="red" stroke-width="0.05" x1="-0.5" x2="-0.5" y1="-0.47619048" y2="0.52380955"/>
<line stroke="red" stroke-width="0.05" x1="0" x2="0" y1="-0.47619048" y2="0.52380955"/>
<line stroke="red" stroke-width="0.05" x1="0.5" x2="0.5" y1="-0.47619048" y2="0.52380955"/>
<line stroke="red" stroke-width="0.05" x1="1" x2="1" y1="-0.47619048" y2="0.52380955"/>
<line stroke="red" stroke-width="0.05" x1="1.5" x2="1.5" y1="-0.47619048" y2="0.52380955"/>
<line stroke="red" stroke-width="0.05" x1="2" x2="2" y1="-0.47619048" y2="0.52380955"/>
<line stroke="red" stroke-width="0.05" x1="2.5" x2="2.5" y1="-0.47619048" y2="0.52380955"/>
<line stroke="red" stroke-width="0.05" x1="3" x2="3" y1="-0.47619048" y2="0.52380955"/>
<line stroke="red" stroke-width="0.05" x1="3.5" x2="3.5" y1="-0.47619048" y2="0.023809522"/>
</svg>