<svg height="600" viewBox="-5.635632 -1.1195402 10.8 2.4" width="800" xmlns="http://www.w3.org/2000/svg">
<path d="M-3.7356322,-0.9195402 L4.264368,-0.9195402 L4.264368,1.0804598 L2.2643678,1.0804598 L0.26436782,0.08045977 L-0.7356322,0.08045977 L-1.7356322,1.0804598 L-4.735632,1.0804598 z" fill="none" stroke="black" stroke-width="0.05"/>
<line stroke="red" stroke-width="0.05" x1="-4.235632" x2="-4.235632" y1="1.0804598" y2="0.080459595"/>
<line stroke="red" stroke-width="0.05" x1="-3.735632" x2="-3.735632" y1="-0.9195402" y2="1.0804598"/>
<line stroke="red" stroke-width="0.05" x1="-3.235632" x2="-3.235632" y1="-0.9195402" y2="1.0804598"/>
<line stroke="red" stroke-width="0.05" x1="-2.735632" x2="-2.735632" y1="-0.9195402" y2="1.0804598"/>
<line stroke="red" stroke-width="0.05" x1="-2.235632" x2="-2.235632" y1="-0.9195402" y2="1.0804598"/>
<line stroke="red" stroke-width="0.05" x1="-1.735632" x2="-1.735632" y1="-0.9195402" y2="1.0804596"/>
<line stroke="red" stroke-width="0.05" x1="-1.235632" x2="-1.235632" y1="-0.9195402" y2="0.58045954"/>
<line stroke="red" stroke-width="0.05" x1="-0.73563194" x2="-0.73563194" y1="-0.9195402" y2="0.08045977"/>
<line stroke="red" stroke-width="0.05" x1="-0.23563194" x2="-0.23563194" y1="-0.9195402" y2="0.08045977"/>
<line stroke="red" stroke-width="0.05" x1="0.26436806" x2="0.26436806" y1="-0.9195402" y2="0.08045995"/>
<line stroke="red" stroke-width="0.05" x1="0.76436806" x2="0.76436806" y1="-0.9195402" y2="0.33045995"/>
<line stroke="red" stroke-width="0.05" x1="1.264368" x2="1.264368" y1="-0.9195402" y2="0.58045995"/>
<line stroke="red" stroke-width="0.05" x1="1.764368" x2="1.764368" y1="-0.9195402" y2="0.83045995"/>
<line stroke="red" stroke-width="0.05" x1="2.264368" x2="2.264368" y1="-0.9195402" y2="1.0804598"/>
<line stroke="red" stroke-width="0.05" x1="2.764368" x2="2.764368" y1="-0.9195402" y2="1.0804598"/>
<line stroke="red" stroke-width="0.05" x1="3.264368" x2="3.264368" y1="-0.9195402" y2="1.0804598"/>
<line stroke="red" stroke-width="0.05" x1="3.764368" x2="3.764368" y1="-0.9195402" y2="1.0804598"/>
<line stroke="red" stroke-width="0.05" x1="4.264368" x2="4.264368" y1="-0.9195402" y2="1.0804598"/>
</svg>