<svg height="600" viewBox="0 0 8 8" width="800" xmlns="http://www.w3.org/2000/svg">
<path d="M0,0 L8,0 L8,2 L6,2 L4,1 L3,1 L2,2 L-1,2 z" fill="none" stroke="black" stroke-width="0.05"/>
<line stroke="red" stroke-width="0.02" x1="-1" x2="-1" y1="2" y2="2"/>
<line stroke="red" stroke-width="0.02" x1="-0.9" x2="-0.9" y1="1.8" y2="2"/>
<line stroke="red" stroke-width="0.02" x1="-0.79999995" x2="-0.79999995" y1="1.5999999" y2="2"/>
<line stroke="red" stroke-width="0.02" x1="-0.6999999" x2="-0.6999999" y1="1.3999999" y2="2"/>
<line stroke="red" stroke-width="0.02" x1="-0.5999999" x2="-0.5999999" y1="1.1999998" y2="2"/>
<line stroke="red" stroke-width="0.02" x1="-0.4999999" x2="-0.4999999" y1="0.99999976" y2="2"/>
<line stroke="red" stroke-width="0.02" x1="-0.39999992" x2="-0.39999992" y1="0.79999983" y2="2"/>
<line stroke="red" stroke-width="0.02" x1="-0.29999992" x2="-0.29999992" y1="0.5999999" y2="2"/>
<line stroke="red" stroke-width="0.02" x1="-0.19999993" x2="-0.19999993" y1="0.39999986" y2="2"/>
<line stroke="red" stroke-width="0.02" x1="-0.09999993" x2="-0.09999993" y1="0.19999981" y2="2"/>
<line stroke="red" stroke-width="0.02" x1="0.000000074505806" x2="0.000000074505806" y1="0" y2="2"/>
<line stroke="red" stroke-width="0.02" x1="0.100000076" x2="0.100000076" y1="0" y2="2"/>
<line stroke="red" stroke-width="0.02" x1="0.20000008" x2="0.20000008" y1="0" y2="2"/>
<line stroke="red" stroke-width="0.02" x1="0.30000007" x2="0.30000007" y1="0" y2="2"/>
<line stroke="red" stroke-width="0.02" x1="0.40000007" x2="0.40000007" y1="0" y2="2"/>
<line stroke="red" stroke-width="0.02" x1="0.50000006" x2="0.50000006" y1="0" y2="2"/>
<line stroke="red" stroke-width="0.02" x1="0.6000001" x2="0.6000001" y1="0" y2="2"/>
<line stroke="red" stroke-width="0.02" x1="0.7000001" x2="0.7000001" y1="0" y2="2"/>
<line stroke="red" stroke-width="0.02" x1="0.80000013" x2="0.80000013" y1="0" y2="2"/>
<line stroke="red" stroke-width="0.02" x1="0.90000015" x2="0.90000015" y1="0" y2="2"/>
<line stroke="red" stroke-width="0.02" x1="1.0000001" x2="1.0000001" y1="0" y2="2"/>
<line stroke="red" stroke-width="0.02" x1="1.1000001" x2="1.1000001" y1="0" y2="2"/>
<line stroke="red" stroke-width="0.02" x1="1.2000002" x2="1.2000002" y1="0" y2="2"/>
<line stroke="red" stroke-width="0.02" x1="1.3000002" x2="1.3000002" y1="0" y2="2"/>
<line stroke="red" stroke-width="0.02" x1="1.4000002" x2="1.4000002" y1="0" y2="2"/>
<line stroke="red" stroke-width="0.02" x1="1.5000002" x2="1.5000002" y1="0" y2="2"/>
<line stroke="red" stroke-width="0.02" x1="1.6000003" x2="1.6000003" y1="0" y2="2"/>
<line stroke="red" stroke-width="0.02" x1="1.7000003" x2="1.7000003" y1="0" y2="2"/>
<line stroke="red" stroke-width="0.02" x1="1.8000003" x2="1.8000003" y1="0" y2="2"/>
<line stroke="red" stroke-width="0.02" x1="1.9000003" x2="1.9000003" y1="0" y2="2"/>
<line stroke="red" stroke-width="0.02" x1="2.0000002" x2="2.0000002" y1="0" y2="1.9999998"/>
<line stroke="red" stroke-width="0.02" x1="2.1000001" x2="2.1000001" y1="0" y2="1.8999999"/>
<line stroke="red" stroke-width="0.02" x1="2.2" x2="2.2" y1="0" y2="1.8"/>
<line stroke="red" stroke-width="0.02" x1="2.3" x2="2.3" y1="0" y2="1.7"/>
<line stroke="red" stroke-width="0.02" x1="2.3999999" x2="2.3999999" y1="0" y2="1.6000001"/>
<line stroke="red" stroke-width="0.02" x1="2.4999998" x2="2.4999998" y1="0" y2="1.5000002"/>
<line stroke="red" stroke-width="0.02" x1="2.5999997" x2="2.5999997" y1="0" y2="1.4000003"/>
<line stroke="red" stroke-width="0.02" x1="2.6999996" x2="2.6999996" y1="0" y2="1.3000004"/>
<line stroke="red" stroke-width="0.02" x1="2.7999995" x2="2.7999995" y1="0" y2="1.2000005"/>
<line stroke="red" stroke-width="0.02" x1="2.8999994" x2="2.8999994" y1="0" y2="1.1000006"/>
<line stroke="red" stroke-width="0.02" x1="2.9999993" x2="2.9999993" y1="0" y2="1.0000007"/>
<line stroke="red" stroke-width="0.02" x1="3.0999992" x2="3.0999992" y1="0" y2="1"/>
<line stroke="red" stroke-width="0.02" x1="3.199999" x2="3.199999" y1="0" y2="1"/>
<line stroke="red" stroke-width="0.02" x1="3.299999" x2="3.299999" y1="0" y2="1"/>
<line stroke="red" stroke-width="0.02" x1="3.399999" x2="3.399999" y1="0" y2="1"/>
<line stroke="red" stroke-width="0.02" x1="3.4999988" x2="3.4999988" y1="0" y2="1"/>
<line stroke="red" stroke-width="0.02" x1="3.5999987" x2="3.5999987" y1="0" y2="1"/>
<line stroke="red" stroke-width="0.02" x1="3.6999986" x2="3.6999986" y1="0" y2="1"/>
<line stroke="red" stroke-width="0.02" x1="3.7999985" x2="3.7999985" y1="0" y2="1"/>
<line stroke="red" stroke-width="0.02" x1="3.8999984" x2="3.8999984" y1="0" y2="1"/>
<line stroke="red" stroke-width="0.02" x1="3.9999983" x2="3.9999983" y1="0" y2="1"/>
<line stroke="red" stroke-width="0.02" x1="4.0999985" x2="4.0999985" y1="0" y2="1.0499992"/>
<line stroke="red" stroke-width="0.02" x1="4.1999984" x2="4.1999984" y1="0" y2="1.0999992"/>
<line stroke="red" stroke-width="0.02" x1="4.2999983" x2="4.2999983" y1="0" y2="1.1499991"/>
<line stroke="red" stroke-width="0.02" x1="4.399998" x2="4.399998" y1="0" y2="1.1999991"/>
<line stroke="red" stroke-width="0.02" x1="4.499998" x2="4.499998" y1="0" y2="1.249999"/>
<line stroke="red" stroke-width="0.02" x1="4.599998" x2="4.599998" y1="0" y2="1.299999"/>
<line stroke="red" stroke-width="0.02" x1="4.699998" x2="4.699998" y1="0" y2="1.349999"/>
<line stroke="red" stroke-width="0.02" x1="4.799998" x2="4.799998" y1="0" y2="1.3999989"/>
<line stroke="red" stroke-width="0.02" x1="4.8999977" x2="4.8999977" y1="0" y2="1.4499989"/>
<line stroke="red" stroke-width="0.02" x1="4.9999976" x2="4.9999976" y1="0" y2="1.4999988"/>
<line stroke="red" stroke-width="0.02" x1="5.0999975" x2="5.0999975" y1="0" y2="1.5499988"/>
<line stroke="red" stroke-width="0.02" x1="5.1999974" x2="5.1999974" y1="0" y2="1.5999987"/>
<line stroke="red" stroke-width="0.02" x1="5.2999973" x2="5.2999973" y1="0" y2="1.6499987"/>
<line stroke="red" stroke-width="0.02" x1="5.399997" x2="5.399997" y1="0" y2="1.6999986"/>
<line stroke="red" stroke-width="0.02" x1="5.499997" x2="5.499997" y1="0" y2="1.7499986"/>
<line stroke="red" stroke-width="0.02" x1="5.599997" x2="5.599997" y1="0" y2="1.7999985"/>
<line stroke="red" stroke-width="0.02" x1="5.699997" x2="5.699997" y1="0" y2="1.8499985"/>
<line stroke="red" stroke-width="0.02" x1="5.799997" x2="5.799997" y1="0" y2="1.8999984"/>
<line stroke="red" stroke-width="0.02" x1="5.8999968" x2="5.8999968" y1="0" y2="1.9499984"/>
<line stroke="red" stroke-width="0.02" x1="5.9999967" x2="5.9999967" y1="0" y2="1.9999983"/>
<line stroke="red" stroke-width="0.02" x1="6.0999966" x2="6.0999966" y1="0" y2="2"/>
<line stroke="red" stroke-width="0.02" x1="6.1999965" x2="6.1999965" y1="0" y2="2"/>
<line stroke="red" stroke-width="0.02" x1="6.2999964" x2="6.2999964" y1="0" y2="2"/>
<line stroke="red" stroke-width="0.02" x1="6.3999963" x2="6.3999963" y1="0" y2="2"/>
<line stroke="red" stroke-width="0.02" x1="6.499996" x2="6.499996" y1="0" y2="2"/>
<line stroke="red" stroke-width="0.02" x1="6.599996" x2="6.599996" y1="0" y2="2"/>
<line stroke="red" stroke-width="0.02" x1="6.699996" x2="6.699996" y1="0" y2="2"/>
<line stroke="red" stroke-width="0.02" x1="6.799996" x2="6.799996" y1="0" y2="2"/>
<line stroke="red" stroke-width="0.02" x1="6.899996" x2="6.899996" y1="0" y2="2"/>
<line stroke="red" stroke-width="0.02" x1="6.9999957" x2="6.9999957" y1="0" y2="2"/>
<line stroke="red" stroke-width="0.02" x1="7.0999956" x2="7.0999956" y1="0" y2="2"/>
<line stroke="red" stroke-width="0.02" x1="7.1999955" x2="7.1999955" y1="0" y2="2"/>
<line stroke="red" stroke-width="0.02" x1="7.2999954" x2="7.2999954" y1="0" y2="2"/>
<line stroke="red" stroke-width="0.02" x1="7.3999953" x2="7.3999953" y1="0" y2="2"/>
<line stroke="red" stroke-width="0.02" x1="7.499995" x2="7.499995" y1="0" y2="2"/>
<line stroke="red" stroke-width="0.02" x1="7.599995" x2="7.599995" y1="0" y2="2"/>
<line stroke="red" stroke-width="0.02" x1="7.699995" x2="7.699995" y1="0" y2="2"/>
<line stroke="red" stroke-width="0.02" x1="7.799995" x2="7.799995" y1="0" y2="2"/>
<line stroke="red" stroke-width="0.02" x1="7.899995" x2="7.899995" y1="0" y2="2"/>
<line stroke="red" stroke-width="0.02" x1="7.9999948" x2="7.9999948" y1="0" y2="2"/>
</svg>