<svg height="600" viewBox="-5.574157 -3.9921348 10.8 8.4" width="800" xmlns="http://www.w3.org/2000/svg">
<path d="M-2.6741574,-3.2921348 L4.325843,-2.2921348 L4.325843,1.7078652 L-2.6741574,3.7078652 L-3.6741574,1.7078652 L-3.6741574,0.70786524 L-4.674157,-0.29213476 L-3.6741574,-1.2921348 z" fill="none" stroke="black" stroke-width="0.05"/>
<line stroke="red" stroke-width="0.05" x1="-4.174157" x2="-4.174157" y1="0.20786536" y2="-0.7921349"/>
<line stroke="red" stroke-width="0.05" x1="-3.6741571" x2="-3.6741571" y1="1.7078657" y2="-1.2921352"/>
<line stroke="red" stroke-width="0.05" x1="-3.1741571" x2="-3.1741571" y1="2.7078657" y2="-2.2921352"/>
<line stroke="red" stroke-width="0.05" x1="-2.6741571" x2="-2.6741571" y1="-3.2921348" y2="3.7078652"/>
<line stroke="red" stroke-width="0.05" x1="-2.1741571" x2="-2.1741571" y1="-3.2207062" y2="3.5650082"/>
<line stroke="red" stroke-width="0.05" x1="-1.6741571" x2="-1.6741571" y1="-3.1492777" y2="3.422151"/>
<line stroke="red" stroke-width="0.05" x1="-1.1741571" x2="-1.1741571" y1="-3.077849" y2="3.2792938"/>
<line stroke="red" stroke-width="0.05" x1="-0.67415714" x2="-0.67415714" y1="-3.0064204" y2="3.1364367"/>
<line stroke="red" stroke-width="0.05" x1="-0.17415714" x2="-0.17415714" y1="-2.9349918" y2="2.9935794"/>
<line stroke="red" stroke-width="0.05" x1="0.32584286" x2="0.32584286" y1="-2.8635633" y2="2.8507223"/>
<line stroke="red" stroke-width="0.05" x1="0.82584286" x2="0.82584286" y1="-2.7921348" y2="2.7078652"/>
<line stroke="red" stroke-width="0.05" x1="1.3258429" x2="1.3258429" y1="-2.7207062" y2="2.5650082"/>
<line stroke="red" stroke-width="0.05" x1="1.8258429" x2="1.8258429" y1="-2.6492777" y2="2.422151"/>
<line stroke="red" stroke-width="0.05" x1="2.3258429" x2="2.3258429" y1="-2.577849" y2="2.2792938"/>
<line stroke="red" stroke-width="0.05" x1="2.8258429" x2="2.8258429" y1="-2.5064206" y2="2.1364367"/>
<line stroke="red" stroke-width="0.05" x1="3.3258429" x2="3.3258429" y1="-2.4349918" y2="1.9935795"/>
<line stroke="red" stroke-width="0.05" x1="3.8258429" x2="3.8258429" y1="-2.3635633" y2="1.8507224"/>
<line stroke="red" stroke-width="0.05" x1="4.325843" x2="4.325843" y1="-2.2921348" y2="1.7078652"/>
</svg>