<svg height="600" viewBox="-7.1593027 -5.386434 14.4 10.8" width="800" xmlns="http://www.w3.org/2000/svg">
<path d="M-5.9593024,-3.4864342 L-2.9593024,-3.4864342 L-2.9593024,-4.486434 L-0.9593024,-3.4864342 L2.0406976,-3.4864342 L5.0406976,-4.486434 L6.0406976,0.5135658 L5.0406976,4.513566 L1.0406976,3.5135658 L-5.9593024,3.5135658 z" fill="none" stroke="black" stroke-width="0.05"/>
<line stroke="red" stroke-width="0.05" x1="-5.9593024" x2="-5.9593024" y1="-3.4864342" y2="3.5135658"/>
<line stroke="red" stroke-width="0.05" x1="-5.9593024" x2="-5.9593024" y1="-3.4864342" y2="-3.4864342"/>
<line stroke="red" stroke-width="0.05" x1="-5.9593024" x2="-5.9593024" y1="3.5135658" y2="3.5135658"/>
<line stroke="red" stroke-width="0.05" x1="-5.4593024" x2="-5.4593024" y1="-3.4864342" y2="3.5135658"/>
<line stroke="red" stroke-width="0.05" x1="-4.9593024" x2="-4.9593024" y1="-3.4864342" y2="3.5135658"/>
<line stroke="red" stroke-width="0.05" x1="-4.4593024" x2="-4.4593024" y1="-3.4864342" y2="3.5135658"/>
<line stroke="red" stroke-width="0.05" x1="-3.9593024" x2="-3.9593024" y1="-3.4864342" y2="3.5135658"/>
<line stroke="red" stroke-width="0.05" x1="-3.4593024" x2="-3.4593024" y1="-3.4864342" y2="3.5135658"/>
<line stroke="red" stroke-width="0.05" x1="-2.9593024" x2="-2.9593024" y1="-4.486434" y2="-4.486434"/>
<line stroke="red" stroke-width="0.05" x1="-2.9593024" x2="-2.9593024" y1="-3.4864342" y2="-4.486434"/>
<line stroke="red" stroke-width="0.05" x1="-2.4593024" x2="-2.4593024" y1="-4.236434" y2="3.5135658"/>
<line stroke="red" stroke-width="0.05" x1="-1.9593024" x2="-1.9593024" y1="-3.986434" y2="3.5135658"/>
<line stroke="red" stroke-width="0.05" x1="-1.4593024" x2="-1.4593024" y1="-3.7364342" y2="3.5135658"/>
<line stroke="red" stroke-width="0.05" x1="-0.9593024" x2="-0.9593024" y1="-3.4864342" y2="3.5135658"/>
<line stroke="red" stroke-width="0.05" x1="-0.45930243" x2="-0.45930243" y1="-3.4864342" y2="3.5135658"/>
<line stroke="red" stroke-width="0.05" x1="0.040697575" x2="0.040697575" y1="-3.4864342" y2="3.5135658"/>
<line stroke="red" stroke-width="0.05" x1="0.5406976" x2="0.5406976" y1="-3.4864342" y2="3.5135658"/>
<line stroke="red" stroke-width="0.05" x1="1.0406976" x2="1.0406976" y1="-3.4864342" y2="3.5135658"/>
<line stroke="red" stroke-width="0.05" x1="1.5406976" x2="1.5406976" y1="-3.4864342" y2="3.6385658"/>
<line stroke="red" stroke-width="0.05" x1="2.0406976" x2="2.0406976" y1="-3.4864342" y2="3.7635658"/>
<line stroke="red" stroke-width="0.05" x1="2.5406976" x2="2.5406976" y1="-3.653101" y2="3.888566"/>
<line stroke="red" stroke-width="0.05" x1="3.0406976" x2="3.0406976" y1="-3.8197675" y2="4.013566"/>
<line stroke="red" stroke-width="0.05" x1="3.5406976" x2="3.5406976" y1="-3.986434" y2="4.138566"/>
<line stroke="red" stroke-width="0.05" x1="4.0406976" x2="4.0406976" y1="-4.153101" y2="4.263566"/>
<line stroke="red" stroke-width="0.05" x1="4.5406976" x2="4.5406976" y1="-4.3197675" y2="4.388566"/>
<line stroke="red" stroke-width="0.05" x1="5.0406976" x2="5.0406976" y1="-4.486434" y2="4.513566"/>
<line stroke="red" stroke-width="0.05" x1="5.5406976" x2="5.5406976" y1="-1.986434" y2="2.5135658"/>
<line stroke="red" stroke-width="0.05" x1="6.0406976" x2="6.0406976" y1="0.5135658" y2="0.5135658"/>
<line stroke="red" stroke-width="0.05" x1="6.0406976" x2="6.0406976" y1="0.513566" y2="0.5135658"/>
</svg>